<mxfile host="Electron" agent="Mozilla/5.0 (X11; Linux x86_64) AppleWebKit/537.36 (KHTML, like Gecko) draw.io/24.7.5 Chrome/126.0.6478.183 Electron/31.3.0 Safari/537.36" version="24.7.5" pages="3">
  <diagram name="0" id="MvGWJ3h9h5nG8N_csSvG">
    <mxGraphModel dx="1114" dy="1038" grid="1" gridSize="10" guides="1" tooltips="1" connect="1" arrows="1" fold="1" page="1" pageScale="1" pageWidth="850" pageHeight="1100" math="0" shadow="0">
      <root>
        <mxCell id="0" />
        <mxCell id="1" parent="0" />
        <mxCell id="w57tzlu4Fn-sx6AqaUPy-1" value="Collection" style="swimlane;childLayout=stackLayout;resizeParent=1;resizeParentMax=0;startSize=20;horizontal=0;horizontalStack=1;collapsible=0;sketch=1;curveFitting=1;jiggle=2;" vertex="1" parent="1">
          <mxGeometry x="220" y="310" width="380" height="70" as="geometry" />
        </mxCell>
        <mxCell id="w57tzlu4Fn-sx6AqaUPy-2" value="Element 0" style="swimlane;startSize=20;collapsible=0;sketch=1;curveFitting=1;jiggle=2;" vertex="1" parent="w57tzlu4Fn-sx6AqaUPy-1">
          <mxGeometry x="20" width="120" height="70" as="geometry" />
        </mxCell>
        <mxCell id="w57tzlu4Fn-sx6AqaUPy-6" value="10" style="text;html=1;align=center;verticalAlign=middle;resizable=0;points=[];autosize=1;strokeColor=none;fillColor=none;sketch=1;curveFitting=1;jiggle=2;" vertex="1" parent="w57tzlu4Fn-sx6AqaUPy-2">
          <mxGeometry x="40" y="30" width="40" height="30" as="geometry" />
        </mxCell>
        <mxCell id="w57tzlu4Fn-sx6AqaUPy-3" value="Element 1" style="swimlane;startSize=20;collapsible=0;sketch=1;curveFitting=1;jiggle=2;" vertex="1" parent="w57tzlu4Fn-sx6AqaUPy-1">
          <mxGeometry x="140" width="120" height="70" as="geometry" />
        </mxCell>
        <mxCell id="w57tzlu4Fn-sx6AqaUPy-7" value="2" style="text;html=1;align=center;verticalAlign=middle;resizable=0;points=[];autosize=1;strokeColor=none;fillColor=none;sketch=1;curveFitting=1;jiggle=2;" vertex="1" parent="w57tzlu4Fn-sx6AqaUPy-3">
          <mxGeometry x="45" y="30" width="30" height="30" as="geometry" />
        </mxCell>
        <mxCell id="w57tzlu4Fn-sx6AqaUPy-4" value="Element 2" style="swimlane;startSize=20;collapsible=0;sketch=1;curveFitting=1;jiggle=2;" vertex="1" parent="w57tzlu4Fn-sx6AqaUPy-1">
          <mxGeometry x="260" width="120" height="70" as="geometry" />
        </mxCell>
        <mxCell id="w57tzlu4Fn-sx6AqaUPy-8" value="5" style="text;html=1;align=center;verticalAlign=middle;resizable=0;points=[];autosize=1;strokeColor=none;fillColor=none;sketch=1;curveFitting=1;jiggle=2;" vertex="1" parent="w57tzlu4Fn-sx6AqaUPy-4">
          <mxGeometry x="45" y="30" width="30" height="30" as="geometry" />
        </mxCell>
        <mxCell id="w57tzlu4Fn-sx6AqaUPy-10" value="" style="shape=singleArrow;direction=north;whiteSpace=wrap;html=1;arrowWidth=0.3;arrowSize=0.48333333333333334;rotation=-180;sketch=1;curveFitting=1;jiggle=2;" vertex="1" parent="1">
          <mxGeometry x="270" y="240" width="60" height="60" as="geometry" />
        </mxCell>
        <mxCell id="w57tzlu4Fn-sx6AqaUPy-11" value="&lt;div&gt;Iinitial&lt;/div&gt;&lt;div&gt;0&lt;/div&gt;" style="text;html=1;align=center;verticalAlign=middle;whiteSpace=wrap;rounded=0;sketch=1;curveFitting=1;jiggle=2;" vertex="1" parent="1">
          <mxGeometry x="220" y="400" width="50" height="30" as="geometry" />
        </mxCell>
        <mxCell id="w57tzlu4Fn-sx6AqaUPy-13" value="Current&lt;div&gt;10&lt;/div&gt;" style="text;html=1;align=center;verticalAlign=middle;whiteSpace=wrap;rounded=0;sketch=1;curveFitting=1;jiggle=2;" vertex="1" parent="1">
          <mxGeometry x="270" y="400" width="60" height="30" as="geometry" />
        </mxCell>
        <mxCell id="w57tzlu4Fn-sx6AqaUPy-14" value="+" style="text;html=1;align=center;verticalAlign=middle;whiteSpace=wrap;rounded=0;sketch=1;curveFitting=1;jiggle=2;" vertex="1" parent="1">
          <mxGeometry x="240" y="400" width="60" height="30" as="geometry" />
        </mxCell>
        <mxCell id="w57tzlu4Fn-sx6AqaUPy-16" value="= 10" style="text;html=1;align=center;verticalAlign=middle;whiteSpace=wrap;rounded=0;sketch=1;curveFitting=1;jiggle=2;" vertex="1" parent="1">
          <mxGeometry x="320" y="400" width="60" height="30" as="geometry" />
        </mxCell>
      </root>
    </mxGraphModel>
  </diagram>
  <diagram name="1" id="n4IIQtb1499Fx3Drwhfj">
    <mxGraphModel dx="1114" dy="1038" grid="1" gridSize="10" guides="1" tooltips="1" connect="1" arrows="1" fold="1" page="1" pageScale="1" pageWidth="850" pageHeight="1100" math="0" shadow="0">
      <root>
        <mxCell id="UHA2OhRIZwrMIT1ATuzy-0" />
        <mxCell id="UHA2OhRIZwrMIT1ATuzy-1" parent="UHA2OhRIZwrMIT1ATuzy-0" />
        <mxCell id="UHA2OhRIZwrMIT1ATuzy-2" value="Collection" style="swimlane;childLayout=stackLayout;resizeParent=1;resizeParentMax=0;startSize=20;horizontal=0;horizontalStack=1;collapsible=0;sketch=1;curveFitting=1;jiggle=2;" vertex="1" parent="UHA2OhRIZwrMIT1ATuzy-1">
          <mxGeometry x="220" y="310" width="380" height="70" as="geometry" />
        </mxCell>
        <mxCell id="UHA2OhRIZwrMIT1ATuzy-3" value="Element 0" style="swimlane;startSize=20;collapsible=0;sketch=1;curveFitting=1;jiggle=2;" vertex="1" parent="UHA2OhRIZwrMIT1ATuzy-2">
          <mxGeometry x="20" width="120" height="70" as="geometry" />
        </mxCell>
        <mxCell id="UHA2OhRIZwrMIT1ATuzy-4" value="10" style="text;html=1;align=center;verticalAlign=middle;resizable=0;points=[];autosize=1;strokeColor=none;fillColor=none;sketch=1;curveFitting=1;jiggle=2;" vertex="1" parent="UHA2OhRIZwrMIT1ATuzy-3">
          <mxGeometry x="40" y="30" width="40" height="30" as="geometry" />
        </mxCell>
        <mxCell id="UHA2OhRIZwrMIT1ATuzy-5" value="Element 1" style="swimlane;startSize=20;collapsible=0;sketch=1;curveFitting=1;jiggle=2;" vertex="1" parent="UHA2OhRIZwrMIT1ATuzy-2">
          <mxGeometry x="140" width="120" height="70" as="geometry" />
        </mxCell>
        <mxCell id="UHA2OhRIZwrMIT1ATuzy-6" value="2" style="text;html=1;align=center;verticalAlign=middle;resizable=0;points=[];autosize=1;strokeColor=none;fillColor=none;sketch=1;curveFitting=1;jiggle=2;" vertex="1" parent="UHA2OhRIZwrMIT1ATuzy-5">
          <mxGeometry x="45" y="30" width="30" height="30" as="geometry" />
        </mxCell>
        <mxCell id="UHA2OhRIZwrMIT1ATuzy-7" value="Element 2" style="swimlane;startSize=20;collapsible=0;sketch=1;curveFitting=1;jiggle=2;" vertex="1" parent="UHA2OhRIZwrMIT1ATuzy-2">
          <mxGeometry x="260" width="120" height="70" as="geometry" />
        </mxCell>
        <mxCell id="UHA2OhRIZwrMIT1ATuzy-8" value="5" style="text;html=1;align=center;verticalAlign=middle;resizable=0;points=[];autosize=1;strokeColor=none;fillColor=none;sketch=1;curveFitting=1;jiggle=2;" vertex="1" parent="UHA2OhRIZwrMIT1ATuzy-7">
          <mxGeometry x="45" y="30" width="30" height="30" as="geometry" />
        </mxCell>
        <mxCell id="UHA2OhRIZwrMIT1ATuzy-9" value="" style="shape=singleArrow;direction=north;whiteSpace=wrap;html=1;arrowWidth=0.3;arrowSize=0.48333333333333334;rotation=-180;sketch=1;curveFitting=1;jiggle=2;" vertex="1" parent="UHA2OhRIZwrMIT1ATuzy-1">
          <mxGeometry x="390" y="240" width="60" height="60" as="geometry" />
        </mxCell>
        <mxCell id="UHA2OhRIZwrMIT1ATuzy-10" value="Previous&lt;div&gt;10&lt;/div&gt;" style="text;html=1;align=center;verticalAlign=middle;whiteSpace=wrap;rounded=0;sketch=1;curveFitting=1;jiggle=2;" vertex="1" parent="UHA2OhRIZwrMIT1ATuzy-1">
          <mxGeometry x="315" y="400" width="60" height="30" as="geometry" />
        </mxCell>
        <mxCell id="UHA2OhRIZwrMIT1ATuzy-11" value="Current&lt;div&gt;2&lt;/div&gt;" style="text;html=1;align=center;verticalAlign=middle;whiteSpace=wrap;rounded=0;sketch=1;curveFitting=1;jiggle=2;" vertex="1" parent="UHA2OhRIZwrMIT1ATuzy-1">
          <mxGeometry x="390" y="400" width="60" height="30" as="geometry" />
        </mxCell>
        <mxCell id="UHA2OhRIZwrMIT1ATuzy-12" value="+" style="text;html=1;align=center;verticalAlign=middle;whiteSpace=wrap;rounded=0;sketch=1;curveFitting=1;jiggle=2;" vertex="1" parent="UHA2OhRIZwrMIT1ATuzy-1">
          <mxGeometry x="350" y="400" width="60" height="30" as="geometry" />
        </mxCell>
        <mxCell id="UHA2OhRIZwrMIT1ATuzy-14" value="= 12" style="text;html=1;align=center;verticalAlign=middle;whiteSpace=wrap;rounded=0;sketch=1;curveFitting=1;jiggle=2;" vertex="1" parent="UHA2OhRIZwrMIT1ATuzy-1">
          <mxGeometry x="440" y="400" width="60" height="30" as="geometry" />
        </mxCell>
      </root>
    </mxGraphModel>
  </diagram>
  <diagram name="2" id="EN07KzSBrj-q75A9bYEr">
    <mxGraphModel dx="1114" dy="1038" grid="1" gridSize="10" guides="1" tooltips="1" connect="1" arrows="1" fold="1" page="1" pageScale="1" pageWidth="850" pageHeight="1100" math="0" shadow="0">
      <root>
        <mxCell id="0XxDxNoUI006cXnMeSfD-0" />
        <mxCell id="0XxDxNoUI006cXnMeSfD-1" parent="0XxDxNoUI006cXnMeSfD-0" />
        <mxCell id="0XxDxNoUI006cXnMeSfD-2" value="Collection" style="swimlane;childLayout=stackLayout;resizeParent=1;resizeParentMax=0;startSize=20;horizontal=0;horizontalStack=1;collapsible=0;sketch=1;curveFitting=1;jiggle=2;" vertex="1" parent="0XxDxNoUI006cXnMeSfD-1">
          <mxGeometry x="220" y="310" width="380" height="70" as="geometry" />
        </mxCell>
        <mxCell id="0XxDxNoUI006cXnMeSfD-3" value="Element 0" style="swimlane;startSize=20;collapsible=0;sketch=1;curveFitting=1;jiggle=2;" vertex="1" parent="0XxDxNoUI006cXnMeSfD-2">
          <mxGeometry x="20" width="120" height="70" as="geometry" />
        </mxCell>
        <mxCell id="0XxDxNoUI006cXnMeSfD-4" value="10" style="text;html=1;align=center;verticalAlign=middle;resizable=0;points=[];autosize=1;strokeColor=none;fillColor=none;sketch=1;curveFitting=1;jiggle=2;" vertex="1" parent="0XxDxNoUI006cXnMeSfD-3">
          <mxGeometry x="40" y="30" width="40" height="30" as="geometry" />
        </mxCell>
        <mxCell id="0XxDxNoUI006cXnMeSfD-5" value="Element 1" style="swimlane;startSize=20;collapsible=0;sketch=1;curveFitting=1;jiggle=2;" vertex="1" parent="0XxDxNoUI006cXnMeSfD-2">
          <mxGeometry x="140" width="120" height="70" as="geometry" />
        </mxCell>
        <mxCell id="0XxDxNoUI006cXnMeSfD-6" value="2" style="text;html=1;align=center;verticalAlign=middle;resizable=0;points=[];autosize=1;strokeColor=none;fillColor=none;sketch=1;curveFitting=1;jiggle=2;" vertex="1" parent="0XxDxNoUI006cXnMeSfD-5">
          <mxGeometry x="45" y="30" width="30" height="30" as="geometry" />
        </mxCell>
        <mxCell id="0XxDxNoUI006cXnMeSfD-7" value="Element 2" style="swimlane;startSize=20;collapsible=0;sketch=1;curveFitting=1;jiggle=2;" vertex="1" parent="0XxDxNoUI006cXnMeSfD-2">
          <mxGeometry x="260" width="120" height="70" as="geometry" />
        </mxCell>
        <mxCell id="0XxDxNoUI006cXnMeSfD-8" value="5" style="text;html=1;align=center;verticalAlign=middle;resizable=0;points=[];autosize=1;strokeColor=none;fillColor=none;sketch=1;curveFitting=1;jiggle=2;" vertex="1" parent="0XxDxNoUI006cXnMeSfD-7">
          <mxGeometry x="45" y="30" width="30" height="30" as="geometry" />
        </mxCell>
        <mxCell id="0XxDxNoUI006cXnMeSfD-9" value="" style="shape=singleArrow;direction=north;whiteSpace=wrap;html=1;arrowWidth=0.3;arrowSize=0.48333333333333334;rotation=-180;sketch=1;curveFitting=1;jiggle=2;" vertex="1" parent="0XxDxNoUI006cXnMeSfD-1">
          <mxGeometry x="505" y="240" width="60" height="60" as="geometry" />
        </mxCell>
        <mxCell id="0XxDxNoUI006cXnMeSfD-10" value="Previous&lt;div&gt;10+2 -&amp;gt;12&lt;/div&gt;" style="text;html=1;align=center;verticalAlign=middle;whiteSpace=wrap;rounded=0;sketch=1;curveFitting=1;jiggle=2;" vertex="1" parent="0XxDxNoUI006cXnMeSfD-1">
          <mxGeometry x="410" y="400" width="65" height="30" as="geometry" />
        </mxCell>
        <mxCell id="0XxDxNoUI006cXnMeSfD-11" value="Current&lt;div&gt;5&lt;/div&gt;" style="text;html=1;align=center;verticalAlign=middle;whiteSpace=wrap;rounded=0;sketch=1;curveFitting=1;jiggle=2;" vertex="1" parent="0XxDxNoUI006cXnMeSfD-1">
          <mxGeometry x="500" y="400" width="60" height="30" as="geometry" />
        </mxCell>
        <mxCell id="0XxDxNoUI006cXnMeSfD-12" value="+" style="text;html=1;align=center;verticalAlign=middle;whiteSpace=wrap;rounded=0;sketch=1;curveFitting=1;jiggle=2;" vertex="1" parent="0XxDxNoUI006cXnMeSfD-1">
          <mxGeometry x="460" y="400" width="60" height="30" as="geometry" />
        </mxCell>
        <mxCell id="0XxDxNoUI006cXnMeSfD-14" value="= 17" style="text;html=1;align=center;verticalAlign=middle;whiteSpace=wrap;rounded=0;sketch=1;curveFitting=1;jiggle=2;" vertex="1" parent="0XxDxNoUI006cXnMeSfD-1">
          <mxGeometry x="560" y="400" width="40" height="30" as="geometry" />
        </mxCell>
      </root>
    </mxGraphModel>
  </diagram>
</mxfile>
